<?xml version="1.0" encoding="UTF-8" standalone="no"?>
<!DOCTYPE svg PUBLIC "-//W3C//DTD SVG 1.1//EN" "http://www.w3.org/Graphics/SVG/1.1/DTD/svg11.dtd">
<svg version="1.1" xmlns="http://www.w3.org/2000/svg" xmlns:xlink="http://www.w3.org/1999/xlink" preserveAspectRatio="xMidYMid meet" viewBox="310.2280919205869 428.8398751426911 121 41" width="117" height="37"><defs><path d="M329.46 466.82L326.89 466.82L327.78 454.03L325.57 454.03C325.03 459.44 324.73 462.45 324.67 463.05C324.39 465.69 323.32 466.77 320.95 466.84C320.93 466.84 320.86 466.84 320.72 466.84L320.33 466.84C320.42 465.56 320.47 464.85 320.48 464.71C321.58 464.71 321.98 464.57 322.13 463.35C322.13 463.34 322.14 463.28 322.15 463.17L323.36 451.9L330.51 451.9L329.46 466.82ZM319.21 466.82L316.63 466.82L317.53 454.03L314.65 454.03L313.76 466.82L311.23 466.82L312.27 451.9L320.25 451.9L319.21 466.82ZM339.58 466.82L337.03 466.82L336.78 464.11L333.68 464.11L333.05 466.82L330.73 466.82L334.35 451.9L338.05 451.9L339.58 466.82ZM348.73 454.03L346.08 454.03L345.19 466.82L342.66 466.82L343.55 454.03L340.91 454.03L341.06 451.9L348.88 451.9L348.73 454.03ZM356.73 454.03L352.36 454.03L352.07 458.19L355.54 458.19L355.39 460.32L351.92 460.32L351.62 464.69L355.98 464.69L355.84 466.82L348.94 466.82L349.98 451.9L356.88 451.9L356.73 454.03ZM362.8 457.93L363.23 451.9L365.73 451.9L365.31 457.93L368.72 451.9L371.25 451.9L367.72 457.95L370.21 466.82L367.61 466.82L365.77 460.21L365.07 461.34L364.69 466.82L362.18 466.82L362.56 461.34L362.02 460.19L359.26 466.82L356.66 466.82L360.41 458.02L357.71 451.9L360.24 451.9L362.8 457.93ZM334.14 462.09L336.58 462.09L335.89 454.54L334.14 462.09ZM401.35 448.29L412.82 448.29L412.82 457.32L401.35 457.32L401.35 461.84L389.23 452.81L401.35 443.77L401.35 448.29ZM428.23 440.87L416.1 449.9L416.1 445.39L404.63 445.39L404.63 436.36L416.1 436.36L416.1 431.84L428.23 440.87ZM349.03 433.37C349.03 433.38 349.02 433.46 349.02 433.59C348.69 438.25 348.51 440.83 348.47 441.35C348.31 443.73 346.85 445.1 344.37 445.1C341.97 445.1 340.71 443.82 340.78 441.57C340.78 441.55 340.79 441.48 340.79 441.35C341.12 436.69 341.3 434.11 341.34 433.59C341.5 431.2 342.96 429.84 345.44 429.84C347.85 429.84 349.1 431.12 349.03 433.37ZM338.82 444.93L336.24 444.93L337.14 432.14L334.93 432.14C334.39 437.55 334.08 440.55 334.02 441.16C333.75 443.8 332.68 444.88 330.31 444.95C330.29 444.95 330.22 444.95 330.08 444.95L329.69 444.95C329.78 443.67 329.83 442.96 329.84 442.82C330.94 442.82 331.33 442.68 331.49 441.46C331.49 441.45 331.5 441.39 331.51 441.28L332.71 430.01L339.86 430.01L338.82 444.93ZM314.35 436.4L317.23 436.4L317.68 430.01L320.25 430.01L319.21 444.93L316.63 444.93L317.08 438.53L314.21 438.53L313.76 444.93L311.23 444.93L312.27 430.01L314.8 430.01L314.35 436.4ZM329.23 444.93L326.68 444.93L326.43 442.22L323.33 442.22L322.7 444.93L320.38 444.93L324 430.01L327.7 430.01L329.23 444.93ZM355.26 436.04L355.68 430.01L358.19 430.01L357.77 436.04L361.18 430.01L363.71 430.01L360.18 436.06L362.66 444.93L360.07 444.93L358.23 438.32L357.53 439.45L357.15 444.93L354.64 444.93L355.02 439.45L354.48 438.3L351.72 444.93L349.12 444.93L352.86 436.13L350.16 430.01L352.69 430.01L355.26 436.04ZM371.54 432.14L367.17 432.14L366.88 436.3L370.35 436.3L370.2 438.43L366.73 438.43L366.42 442.8L370.79 442.8L370.64 444.93L363.74 444.93L364.79 430.01L371.69 430.01L371.54 432.14ZM375.33 436.4L378.21 436.4L378.65 430.01L381.23 430.01L380.19 444.93L377.61 444.93L378.06 438.53L375.18 438.53L374.73 444.93L372.2 444.93L373.25 430.01L375.78 430.01L375.33 436.4ZM343.89 433.26C343.89 433.27 343.89 433.33 343.88 433.44C343.54 438.27 343.35 440.96 343.31 441.5C343.24 442.56 343.72 442.97 344.52 442.97C345.28 442.97 345.8 442.61 345.92 441.68C345.92 441.67 345.92 441.61 345.93 441.5C346.27 436.66 346.46 433.98 346.5 433.44C346.57 432.38 346.1 431.97 345.29 431.97C344.53 431.97 344.02 432.33 343.89 433.26ZM323.79 440.2L326.23 440.2L325.54 432.65L323.79 440.2Z" id="dL1Z892Ly"></path></defs><g><g><use xlink:href="#dL1Z892Ly" opacity="1" fill="#005175" fill-opacity="1"></use><g><use xlink:href="#dL1Z892Ly" opacity="1" fill-opacity="0" stroke="#000000" stroke-width="1" stroke-opacity="0"></use></g></g></g></svg>