<svg xmlns="http://www.w3.org/2000/svg" xmlns:xlink="http://www.w3.org/1999/xlink" viewBox="0 0 91.15 26.94"><defs><style>.cls-1,.cls-7{fill:#1697d4;}.cls-2{opacity:0.36;}.cls-3{clip-path:url(#clip-path);}.cls-4,.cls-5{fill:#fbb116;}.cls-5{font-size:23.29px;letter-spacing:0.01em;}.cls-5,.cls-7{font-family:DelisiaW00-Regular;}.cls-6{letter-spacing:0.02em;}.cls-7{font-size:18.48px;}</style><clipPath id="clip-path" transform="translate(-3 1.26)"><path class="cls-1" d="M17.37,13.54l-.17-.13-1.86-1.19a1.79,1.79,0,0,1-.76-1.12L16,6.92l-3.32-.3-1,5.66a1.85,1.85,0,0,1,1.78,1.38,1.79,1.79,0,0,1-.06,1l2.41,1.55.07.05A5.15,5.15,0,0,1,17.37,13.54Z"/></clipPath></defs><title>flexingSocks</title><g id="Layer_1" data-name="Layer 1"><g class="cls-2"><path class="cls-1" d="M17.37,13.54l-.17-.13-1.86-1.19a1.79,1.79,0,0,1-.76-1.12L16,6.92l-3.32-.3-1,5.66a1.85,1.85,0,0,1,1.78,1.38,1.79,1.79,0,0,1-.06,1l2.41,1.55.07.05A5.15,5.15,0,0,1,17.37,13.54Z" transform="translate(-3 1.26)"/><g class="cls-3"><polygon class="cls-4" points="6.59 17.9 6.13 17.81 8.1 6.29 8.56 6.38 6.59 17.9"/><polygon class="cls-4" points="6.91 17.96 6.76 17.93 8.73 6.42 8.87 6.45 6.91 17.96"/><polygon class="cls-4" points="7.54 18.09 7.08 18 9.04 6.48 9.5 6.57 7.54 18.09"/><polygon class="cls-4" points="7.85 18.15 7.71 18.12 9.67 6.61 9.81 6.64 7.85 18.15"/><polygon class="cls-4" points="8.48 18.28 8.02 18.19 9.98 6.67 10.44 6.76 8.48 18.28"/><polygon class="cls-4" points="8.79 18.34 8.65 18.31 10.61 6.8 10.76 6.83 8.79 18.34"/><polygon class="cls-4" points="9.43 18.47 8.96 18.38 10.93 6.86 11.39 6.95 9.43 18.47"/><polygon class="cls-4" points="9.74 18.53 9.6 18.5 11.56 6.99 11.7 7.01 9.74 18.53"/><polygon class="cls-4" points="10.37 18.66 9.91 18.57 11.87 7.05 12.33 7.14 10.37 18.66"/><polygon class="cls-4" points="10.68 18.72 10.54 18.69 12.5 7.17 12.64 7.2 10.68 18.72"/><polygon class="cls-4" points="11.31 18.85 10.85 18.75 12.81 7.24 13.28 7.33 11.31 18.85"/><polygon class="cls-4" points="11.63 18.91 11.48 18.88 13.45 7.36 13.59 7.39 11.63 18.91"/><polygon class="cls-4" points="12.26 19.04 11.8 18.94 13.76 7.43 14.22 7.52 12.26 19.04"/><polygon class="cls-4" points="12.57 19.1 12.43 19.07 14.39 7.55 14.53 7.58 12.57 19.1"/><polygon class="cls-4" points="13.2 19.23 12.74 19.13 14.7 7.62 15.16 7.71 13.2 19.23"/><polygon class="cls-4" points="13.51 19.29 13.37 19.26 15.34 7.74 15.48 7.77 13.51 19.29"/><polygon class="cls-1" points="16.74 15.15 17.11 14.83 10.38 5.67 10.01 5.99 16.74 15.15"/><polygon class="cls-1" points="16.49 15.37 16.6 15.27 9.87 6.11 9.76 6.21 16.49 15.37"/><polygon class="cls-1" points="15.99 15.8 16.35 15.48 9.62 6.32 9.26 6.64 15.99 15.8"/><polygon class="cls-1" points="15.74 16.01 15.85 15.92 9.12 6.76 9.01 6.85 15.74 16.01"/><polygon class="cls-1" points="15.24 16.45 15.6 16.13 8.87 6.97 8.51 7.29 15.24 16.45"/><polygon class="cls-1" points="14.99 16.66 15.1 16.57 8.37 7.41 8.26 7.5 14.99 16.66"/><polygon class="cls-1" points="14.49 17.1 14.85 16.78 8.12 7.62 7.76 7.94 14.49 17.1"/><polygon class="cls-1" points="14.24 17.31 14.35 17.21 7.62 8.05 7.51 8.15 14.24 17.31"/><polygon class="cls-1" points="13.73 17.75 14.1 17.43 7.37 8.27 7 8.59 13.73 17.75"/><polygon class="cls-1" points="13.49 17.96 13.6 17.86 6.87 8.7 6.76 8.8 13.49 17.96"/><polygon class="cls-1" points="12.98 18.39 13.35 18.08 6.62 8.92 6.25 9.23 12.98 18.39"/><polygon class="cls-1" points="12.74 18.61 12.85 18.51 6.12 9.35 6.01 9.45 12.74 18.61"/><polygon class="cls-1" points="12.23 19.04 12.6 18.73 5.87 9.57 5.5 9.88 12.23 19.04"/><polygon class="cls-1" points="11.98 19.26 12.1 19.16 5.37 10 5.25 10.1 11.98 19.26"/><polygon class="cls-1" points="11.48 19.69 11.85 19.37 5.12 10.21 4.75 10.53 11.48 19.69"/><polygon class="cls-1" points="11.23 19.91 11.35 19.81 4.62 10.65 4.5 10.75 11.23 19.91"/></g></g><path class="cls-1" d="M11.63,12.28l.12.52a2.41,2.41,0,0,0,1,1.48l.59.38a1.79,1.79,0,0,0,.06-1A1.85,1.85,0,0,0,11.63,12.28Z" transform="translate(-3 1.26)"/><path class="cls-1" d="M17.72,15.68a1.75,1.75,0,0,0-.35-2.14,5.15,5.15,0,0,0-1.54,2.72A1.38,1.38,0,0,0,17.72,15.68Z" transform="translate(-3 1.26)"/><polygon class="cls-1" points="12.75 8.84 9.53 8.56 9.65 7.87 12.97 8.18 12.75 8.84"/><text class="cls-5" transform="translate(48 19.21) scale(0.92 1)">S<tspan class="cls-6" x="10.46" y="0">ocks</tspan></text></g><g id="Layer_2" data-name="Layer 2"><text class="cls-7" transform="translate(0 17) scale(0.92 1)"><tspan xml:space="preserve">F  exing</tspan></text></g></svg>